<svg width="325" height="325" 
  xmlns="http://www.w3.org/2000/svg">

  <!-- A rx ry x-axis-rotation large-arc-flag sweep-flag x y -->
  <path d="M 80 80
           A 45 45, 0, 0, 0, 125 125
           L 125 80 Z" fill="green" />
  
  <path d="M 230 80
           A 45 45, 0, 1, 0, 275 125
           L 275 80 Z" fill="red" />
  
  <path d="M 80 230
           A 45 45, 0, 0, 1, 125 275
           L 125 230 Z" fill="purple" />
  
  <path d="M 230 230
           A 45 45, 0, 1, 1, 275 275
           L 275 230 Z" fill="blue" />

  <!-- Test -->
  <circle cx="80" cy="80" r="2" fill="orange" />
  <circle cx="125" cy="125" r="2" fill="violet" />
  <circle cx="125" cy="80" r="2" fill="blue" />

  <circle cx="230" cy="80" r="2" fill="blue" />
  <circle cx="275" cy="125" r="2" fill="purple" />
  <circle cx="275" cy="80" r="2" fill="green" />

  <circle cx="80" cy="230" r="2" fill="blue" />
  <circle cx="125" cy="275" r="2" fill="violet" />
  <circle cx="125" cy="230" r="2" fill="green" />

  <circle cx="230" cy="230" r="2" fill="blue" />
  <circle cx="275" cy="275" r="2" fill="purple" />
  <circle cx="275" cy="230" r="2" fill="green" />

</svg>