<svg version="1.1"  
    xmlns="http://www.w3.org/2000/svg" 
    xmlns:xlink="http://www.w3.org/1999/xlink" 
    x="0px" y="0px" viewBox="0 0 826 951">
    <style type="text/css">
        .A{fill:#A7A9AC;}
        .B{fill:#FFFFFF;}
    </style>
    <g>
        <path class="A" d="M383.5,951.7c-6.2,0-12.7-1.5-17.5-3.9c-25.2-13.1-43.9-36.9-56.9-59.2c-1,1.7-2.1,3.3-3.6,4.8
            c-6.4,6.7-22.5,12.6-51.9-5C182.6,846,153.3,755,145.7,700.8c-52.7,4-101.2-11.3-128-39.5C12,655.2-5.9,634,1.9,612.4
            c5.2-14.2,18.9-22.7,41-25.3c43.3-5.2,82.1-27.9,100-58.5c-1.1-30.2,0-59.3,3.2-87.1c-3.7-1.8-7.3-3.5-10.8-5.1
            c-30.7-14.7-55.1-26.3-62.9-51.9c-8.3-27.3,4.7-64.6,48-137.5C178.7,148.9,266,63.4,354.1,18.6C374.7,8.1,392,0,411.6,0
            c14.9,0,30.6,4.5,53.9,15.5c111,52.4,207.7,165.3,254.1,253.8c32.6,62.2,41.4,94.5,32.3,119.4c-9.2,25.6-35.5,37.5-72,52.8
            c2.8,27.1,3.8,56.4,2.7,87.3c28.2,45.8,87.5,58.1,102.3,58.8c19.2,1,34.4,10.7,39.6,25.2c4.2,11.6,3.8,30.2-21.6,53.4
            c-17.6,16-50.1,35.1-105.4,35.1l0,0c-5.5,0-11.4-0.2-17.4-0.7c-8,61.2-42.3,154.9-112.1,191.1c-26.2,13.5-43.1,6.8-49.2-0.4
            c-0.7-0.7-1.3-1.6-1.9-2.4c-15.5,28-33.6,47-54.2,57.3c-5,2.4-12.5,5.3-21,5.3c-12.1,0-22.2-5.7-28.7-16.1
            C406.9,945.8,396.3,951.7,383.5,951.7z"></path>
        <path class="B" d="M779.4,641.8c23.2-23.4-2.4-23.5-12.1-24.9c-15-2.2-81-7.9-122.8-79.4c0.8-89.2-7.1-147-25.2-215.3
            c-7.6-28.4,18.5-23.3,25.6,0.1c5.1,10.7,18.3,37.4,26.8,85.2C750,381.9,720,353.3,683,284.3C641.6,207,553.5,97.3,449.2,47.5
            c-41.2-19.6-62.6-4.1-83.5,6.2c-83.4,41.1-175,147.2-212.7,213.6c-55.7,98-70.4,118.1,2.3,143.4c8.2-44.3,21.3-75.6,25.6-85
            c6.3-19.9,32.2-34.5,24.3,1.5c-2.6,8.7-28.9,130.5-23.7,211c-35,62.7-95.2,77.4-131.2,80.1c-19.7,1.4-16.5,14.8,3.6,30
            c20,15.2,76.5,22.3,107.1,13.3c26.9-7.9,20.7-12.7,23.3,25.3c4.9,72.7,46,138.6,76.6,163.9c18.9,15.5,18,0.7,17.7-5.8
            c-0.6-8.7-5.5-72.7,1.2-109.1c6-32.8,18.5,7.2,23.3,31.1c8.1,39.7,35.5,115.4,67.4,143c10.4,9,16.4,6.2,16.4-11.6
            c0-14.2,5.3-104.6,17.3-139.7c6-17.7,12.8-14.9,17.6,0.3c12.6,39.8,16.6,123.8,16.4,137.1c-0.3,27.1,12.3,20.6,24.1,7.3
            c36.5-41.2,55.9-116.7,60.6-137.3c6-26,17.3-59.5,22.5-33.2c6.4,32.9,3.6,100.7,2,113.1c-1.1,8.6,0.5,18.2,17.6,4.6
            c34.5-27.1,75.5-96.4,77.9-177.7c0.5-16-3.7-21.6,16.1-13.7C691.5,672.5,758.8,662.6,779.4,641.8z"></path>
        <path class="B" d="M779.4,641.8c-20.6,20.8-87.9,30.7-120.4,17.7c-19.8-7.9-15.6-2.3-16.1,13.7c-2.4,81.2-43.4,150.6-77.9,177.7
            c-17.1,13.5-18.8,4-17.6-4.6c1.6-12.3,4.4-80.2-2-113.1c-5.2-26.3-16.5,7.2-22.5,33.2c-4.7,20.5-24.1,96-60.6,137.3
            c-11.8,13.2-24.4,19.8-24.1-7.3c0.3-13.3-3.8-97.3-16.4-137.1c-4.8-15.2-11.6-18-17.6-0.3c-12,35.1-17.4,125.5-17.3,139.7
            c0,17.7-6,20.5-16.4,11.6c-31.9-27.6-59.4-103.3-67.4-143c-4.8-23.9-17.2-63.9-23.3-31.1c-6.7,36.3-1.8,100.4-1.2,109.1
            c0.4,6.5,1.2,21.3-17.7,5.8c-30.6-25.3-71.7-91.3-76.6-163.9c-2.6-38,3.6-33.2-23.3-25.3c-30.6,9-87,1.9-107.1-13.3
            c-20.1-15.2-23.3-28.5-3.6-30c36-2.7,96.2-17.4,131.2-80.1c-5.2-80.6,21.2-202.3,23.7-211c7.9-36-18-21.4-24.3-1.5
            c-4.2,9.4-17.3,40.7-25.6,85c-72.7-25.2-58-45.4-2.3-143.4c37.7-66.4,129.3-172.5,212.7-213.6c20.8-10.3,42.2-25.8,83.5-6.2
            C553.5,97.3,641.6,207,683,284.3c37,69,67,97.6-11.3,123.1c-8.5-47.8-21.7-74.4-26.8-85.2c-7.1-23.4-33.2-28.5-25.6-0.1
            c18.2,68.3,26,126,25.2,215.3c41.8,71.5,107.8,77.2,122.8,79.4C776.9,618.3,802.6,618.4,779.4,641.8z"></path>
        <path class="A" d="M520.7,344c-43.6-1.9-137.7-2.8-196-0.4c-46.7,1.9-115.6,1.1-116.1,79c-0.4,73.5,62.5,77,111.6,77.9
            c21.7,0.4,50.5,0.7,87.8,0.7c48.8,0.3,106.3-1.1,122.3-1.9c58.7-3.2,85.7-19.5,87-73.9C618.7,367.5,584.7,346.8,520.7,344z"></path>
        <path class="B" d="M300,475.5c-33.6,0-60.9-24.6-60.9-54.8c0-30.2,27.3-54.8,60.9-54.8c33.7,0,60.9,24.6,60.9,54.8
            C361,450.9,333.7,475.5,300,475.5z"></path>
        <path class="B" d="M525.1,475.5c-33.6,0-60.8-24.6-60.9-54.8c0-30.2,27.3-54.8,60.9-54.8c33.6,0,61.8,24.6,61.8,54.8
            C587,451,558.7,475.5,525.1,475.5z"></path>
        <path class="A" d="M299.1,388.1c-19.5,0-35.3,14.2-35.3,31.8c0,17.5,15.8,31.8,35.3,31.8c19.4,0,35.3-14.2,35.2-31.7
            C334.5,402.3,318.7,388.1,299.1,388.1z"></path>
        <path class="A" d="M526,388.2c-19.5,0-35.3,14.2-35.3,31.8c0,17.5,15.8,31.8,35.3,31.8c19.5,0,35.4-14.3,35.4-31.7
            C561.4,402.4,545.5,388.1,526,388.2z"></path>

        <animateTransform 
            attributeType="xml"
            attributeName="transform" type="rotate"
            from="0" to="15"
            begin="0" dur="4s" 
            fill="freeze"
            repeatCount="indefinite"
        />
    </g>
</svg>